<svg width="449" height="144" viewBox="0 0 449 144" fill="none" xmlns="http://www.w3.org/2000/svg">
<path fill-rule="evenodd" clip-rule="evenodd" d="M73.2166 0H63.4543V43.2243L47.2622 3.14741L38.2108 6.8044L54.8224 47.9195L23.4665 16.5635L16.5635 23.4665L46.6168 53.5197L7.67004 36.5035L3.76158 45.4491L44.9719 63.4543H0V73.2166H44.9718L3.7616 91.2216L7.67004 100.167L46.6168 83.1512L16.5635 113.204L23.4665 120.107L54.8224 88.7513L38.2108 129.867L47.2622 133.523L63.4543 93.4466V136.671H73.2166V93.4466L89.4087 133.523L98.4597 129.867L81.8488 88.7513L113.204 120.107L120.107 113.204L90.0538 83.1512L129.001 100.167L132.909 91.2216L91.6993 73.2166H136.671V63.4543H91.6986L132.909 45.4491L129.001 36.5035L90.0538 53.5197L120.107 23.4664L113.204 16.5635L81.8488 47.9194L98.4597 6.8044L89.4087 3.14741L73.2166 43.2243V0Z" fill="#00E2DE"/>
<path d="M54.7 37H85.3V45.5H65.6V60.7H83.2L81.8 69.2H65.6V90.5H85.3V99H54.7V37ZM99.3281 99C96.6615 99 94.7615 98.6 93.6281 97.8C92.4948 96.9333 91.7615 95.5667 91.4281 93.7C91.1615 91.7667 91.0281 89.2 91.0281 86V63.2C91.0281 60.6 91.3615 58.5 92.0281 56.9C92.6948 55.2333 93.8615 54 95.5281 53.2C97.1948 52.4 99.5281 52 102.528 52H122.928V99H112.328V60.5H105.328C104.195 60.5 103.361 60.6667 102.828 61C102.295 61.3333 101.961 61.8667 101.828 62.6C101.695 63.2667 101.628 64.2 101.628 65.4V85.3C101.628 86.8333 101.728 87.9667 101.928 88.7C102.128 89.4333 102.461 89.9333 102.928 90.2C103.461 90.4 104.195 90.5 105.128 90.5H110.328L109.228 99H99.3281ZM143.877 99.6C138.877 99.6 135.31 98.6333 133.177 96.7C131.043 94.7 129.977 91.9333 129.977 88.4V82.1L139.477 80.8V87.9C139.477 88.6333 139.577 89.3667 139.777 90.1C140.043 90.8333 140.51 91.4333 141.177 91.9C141.843 92.3 142.843 92.5 144.177 92.5C145.71 92.5 146.877 92.1667 147.677 91.5C148.543 90.8333 148.977 89.6333 148.977 87.9C148.977 85.4333 148.777 83.6333 148.377 82.5C148.043 81.3 147.043 80.3 145.377 79.5C144.843 79.1667 144.177 78.8333 143.377 78.5C142.643 78.1667 141.877 77.8 141.077 77.4C140.277 77 139.51 76.6333 138.777 76.3C138.043 75.9 137.443 75.5667 136.977 75.3C134.977 74.1667 133.477 73.0667 132.477 72C131.477 70.9333 130.81 69.8333 130.477 68.7C130.143 67.5 129.977 66.2 129.977 64.8V62.9C129.977 58.9 131.143 56 133.477 54.2C135.81 52.3333 139.51 51.4 144.577 51.4C149.643 51.4 153.243 52.2333 155.377 53.9C157.577 55.5667 158.677 58.2667 158.677 62V67.7L149.077 69V63C149.077 61.3333 148.677 60.2 147.877 59.6C147.143 58.9333 145.943 58.6 144.277 58.6C142.943 58.6 141.91 58.8333 141.177 59.3C140.51 59.7 140.077 60.2667 139.877 61C139.677 61.6667 139.577 62.3667 139.577 63.1C139.577 65.1667 139.743 66.6 140.077 67.4C140.41 68.2 141.11 68.9667 142.177 69.7C142.71 70.0333 143.443 70.4333 144.377 70.9C145.31 71.3667 146.41 71.9 147.677 72.5C148.943 73.1 150.343 73.8 151.877 74.6C154.41 75.8 156.177 77.2333 157.177 78.9C158.177 80.5667 158.677 82.9 158.677 85.9V87.4C158.677 91.5333 157.61 94.6 155.477 96.6C153.41 98.6 149.543 99.6 143.877 99.6ZM160.045 116L161.745 109.4H166.445C168.445 109.4 170.045 108.867 171.245 107.8C172.511 106.733 173.511 104.733 174.245 101.8L175.145 97.9L161.445 52H171.645L179.445 82.2L179.545 84.7L179.645 82.2L187.545 52H197.945L182.245 104.6C181.045 108.667 179.511 111.567 177.645 113.3C175.778 115.1 173.045 116 169.445 116H160.045ZM217.663 99.7C214.73 99.7 211.963 99.5 209.363 99.1C206.83 98.7 204.797 97.9333 203.263 96.8C201.797 95.6 201.063 93.9 201.063 91.7V77.7L211.863 76.5V87.2C211.863 88.4 212.197 89.3667 212.863 90.1C213.597 90.7667 214.997 91.1 217.063 91.1C218.397 91.1 219.43 90.9333 220.163 90.6C220.897 90.2 221.397 89.6667 221.663 89C221.93 88.3333 222.063 87.5 222.063 86.5V79.8C222.063 78 221.63 76.4 220.763 75C219.963 73.6 218.463 72.5667 216.263 71.9L209.363 69.8C206.43 68.8667 204.297 67.6667 202.963 66.2C201.697 64.7333 201.063 62.4333 201.063 59.3V46.3C201.063 43.3667 201.797 41.2 203.263 39.8C204.73 38.4 206.73 37.5 209.263 37.1C211.797 36.6333 214.563 36.4 217.563 36.4C220.43 36.4 222.997 36.6333 225.263 37.1C227.597 37.5667 229.43 38.4 230.763 39.6C232.163 40.7333 232.863 42.3333 232.863 44.4V58.4L222.063 59.9V49.8C222.063 47.7333 221.697 46.4 220.963 45.8C220.297 45.1333 219.03 44.8 217.163 44.8C215.23 44.8 213.863 45.2 213.063 46C212.263 46.7333 211.863 48.2333 211.863 50.5V56.3C211.863 57.8333 212.197 59.2667 212.863 60.6C213.597 61.8667 214.763 62.7667 216.363 63.3L224.063 65.7C227.197 66.7 229.43 67.9667 230.763 69.5C232.163 70.9667 232.863 73.2667 232.863 76.4V89.5C232.863 92.3667 232.197 94.5333 230.863 96C229.53 97.4667 227.697 98.4667 225.363 99C223.097 99.4667 220.53 99.7 217.663 99.7ZM250.268 99C247.135 99 244.768 98.5333 243.168 97.6C241.568 96.6 240.501 95.3667 239.968 93.9C239.435 92.4333 239.168 90.9667 239.168 89.5V52H249.768V84.9C249.768 86.8333 250.168 88.2667 250.968 89.2C251.835 90.0667 253.201 90.5 255.068 90.5H260.468V52H271.068V99H250.268ZM279.023 52H301.723C304.79 52 306.957 52.4 308.223 53.2C309.49 54 310.257 55.4333 310.523 57.5C310.79 59.5 310.923 62.3 310.923 65.9V87.8C310.923 90.4 310.59 92.5333 309.923 94.2C309.257 95.8 308.09 97 306.423 97.8C304.757 98.6 302.39 99 299.323 99H289.623V114.8H279.023V52ZM289.623 60.5V90.5H296.623C297.69 90.5 298.49 90.3333 299.023 90C299.557 89.6667 299.89 89.1333 300.023 88.4C300.223 87.6667 300.323 86.7333 300.323 85.6V65.7C300.323 64.1667 300.19 63.0333 299.923 62.3C299.723 61.5667 299.357 61.1 298.823 60.9C298.357 60.6333 297.59 60.5 296.523 60.5H289.623ZM318.672 52H341.372C344.439 52 346.605 52.4 347.872 53.2C349.139 54 349.905 55.4333 350.172 57.5C350.439 59.5 350.572 62.3 350.572 65.9V87.8C350.572 90.4 350.239 92.5333 349.572 94.2C348.905 95.8 347.739 97 346.072 97.8C344.405 98.6 342.039 99 338.972 99H329.272V114.8H318.672V52ZM329.272 60.5V90.5H336.272C337.339 90.5 338.139 90.3333 338.672 90C339.205 89.6667 339.539 89.1333 339.672 88.4C339.872 87.6667 339.972 86.7333 339.972 85.6V65.7C339.972 64.1667 339.839 63.0333 339.572 62.3C339.372 61.5667 339.005 61.1 338.472 60.9C338.005 60.6333 337.239 60.5 336.172 60.5H329.272ZM373.32 99.5C368.92 99.5 365.587 98.9667 363.32 97.9C361.12 96.8333 359.62 95.4 358.82 93.6C358.02 91.8 357.62 89.8333 357.62 87.7V63.2C357.62 61 358.02 59.0333 358.82 57.3C359.62 55.5 361.154 54.0667 363.42 53C365.754 51.9333 369.154 51.4 373.62 51.4C377.62 51.4 380.787 51.9333 383.12 53C385.454 54 387.087 55.3667 388.02 57.1C389.02 58.8333 389.52 60.8 389.52 63V87.3C389.52 89.6333 389.02 91.7333 388.02 93.6C387.02 95.4 385.354 96.8333 383.02 97.9C380.687 98.9667 377.454 99.5 373.32 99.5ZM373.22 90.8C375.287 90.8 376.754 90.3 377.62 89.3C378.487 88.2333 378.92 86.9333 378.92 85.4V65C378.92 63.6 378.487 62.3667 377.62 61.3C376.82 60.1667 375.454 59.6 373.52 59.6C371.654 59.6 370.287 60.1333 369.42 61.2C368.62 62.2667 368.22 63.5333 368.22 65V85.7C368.22 87.1 368.62 88.3 369.42 89.3C370.22 90.3 371.487 90.8 373.22 90.8ZM396.797 99V52H405.497L406.497 56.9C407.497 55.0333 408.864 53.6333 410.597 52.7C412.397 51.7667 414.13 51.3 415.797 51.3C417.597 51.3 418.964 51.4 419.897 51.6C420.83 51.7333 421.597 51.9667 422.197 52.3L421.697 61.5C420.964 61.2333 419.997 61.0333 418.797 60.9C417.664 60.7 416.364 60.6 414.897 60.6C413.097 60.6 411.497 61.1333 410.097 62.2C408.697 63.2 407.797 64.7667 407.397 66.9V99H396.797ZM440.675 99C438.142 99 435.908 98.7667 433.975 98.3C432.108 97.8333 430.642 96.8667 429.575 95.4C428.575 93.9333 428.075 91.7333 428.075 88.8V60H424.775V52H429.075L430.875 43.2H438.575V52H447.175L444.775 60H438.575V84.2C438.575 86.6 439.008 88.2667 439.875 89.2C440.808 90.0667 442.142 90.5 443.875 90.5H447.675V99H440.675Z" fill="#1C1C1C"/>
<path d="M155.794 138.126C155.206 138.126 154.679 138.028 154.212 137.832C153.745 137.627 153.377 137.347 153.106 136.992C152.835 136.628 152.686 136.213 152.658 135.746H153.974C154.011 136.129 154.189 136.441 154.506 136.684C154.833 136.927 155.257 137.048 155.78 137.048C156.265 137.048 156.648 136.941 156.928 136.726C157.208 136.511 157.348 136.241 157.348 135.914C157.348 135.578 157.199 135.331 156.9 135.172C156.601 135.004 156.139 134.841 155.514 134.682C154.945 134.533 154.478 134.383 154.114 134.234C153.759 134.075 153.451 133.847 153.19 133.548C152.938 133.24 152.812 132.839 152.812 132.344C152.812 131.952 152.929 131.593 153.162 131.266C153.395 130.939 153.727 130.683 154.156 130.496C154.585 130.3 155.075 130.202 155.626 130.202C156.475 130.202 157.161 130.417 157.684 130.846C158.207 131.275 158.487 131.863 158.524 132.61H157.25C157.222 132.209 157.059 131.887 156.76 131.644C156.471 131.401 156.079 131.28 155.584 131.28C155.127 131.28 154.763 131.378 154.492 131.574C154.221 131.77 154.086 132.027 154.086 132.344C154.086 132.596 154.165 132.806 154.324 132.974C154.492 133.133 154.697 133.263 154.94 133.366C155.192 133.459 155.537 133.567 155.976 133.688C156.527 133.837 156.975 133.987 157.32 134.136C157.665 134.276 157.959 134.491 158.202 134.78C158.454 135.069 158.585 135.447 158.594 135.914C158.594 136.334 158.477 136.712 158.244 137.048C158.011 137.384 157.679 137.65 157.25 137.846C156.83 138.033 156.345 138.126 155.794 138.126ZM167.392 133.87C167.392 134.113 167.378 134.369 167.35 134.64H161.218C161.265 135.396 161.522 135.989 161.988 136.418C162.464 136.838 163.038 137.048 163.71 137.048C164.261 137.048 164.718 136.922 165.082 136.67C165.456 136.409 165.717 136.063 165.866 135.634H167.238C167.033 136.371 166.622 136.973 166.006 137.44C165.39 137.897 164.625 138.126 163.71 138.126C162.982 138.126 162.329 137.963 161.75 137.636C161.181 137.309 160.733 136.847 160.406 136.25C160.08 135.643 159.916 134.943 159.916 134.15C159.916 133.357 160.075 132.661 160.392 132.064C160.71 131.467 161.153 131.009 161.722 130.692C162.301 130.365 162.964 130.202 163.71 130.202C164.438 130.202 165.082 130.361 165.642 130.678C166.202 130.995 166.632 131.434 166.93 131.994C167.238 132.545 167.392 133.17 167.392 133.87ZM166.076 133.604C166.076 133.119 165.969 132.703 165.754 132.358C165.54 132.003 165.246 131.737 164.872 131.56C164.508 131.373 164.102 131.28 163.654 131.28C163.01 131.28 162.46 131.485 162.002 131.896C161.554 132.307 161.298 132.876 161.232 133.604H166.076ZM170.348 131.574C170.572 131.135 170.889 130.795 171.3 130.552C171.72 130.309 172.229 130.188 172.826 130.188V131.504H172.49C171.062 131.504 170.348 132.279 170.348 133.828V138H169.074V130.328H170.348V131.574ZM177.153 136.824L179.533 130.328H180.891L177.881 138H176.397L173.387 130.328H174.759L177.153 136.824ZM182.802 129.082C182.56 129.082 182.354 128.998 182.186 128.83C182.018 128.662 181.934 128.457 181.934 128.214C181.934 127.971 182.018 127.766 182.186 127.598C182.354 127.43 182.56 127.346 182.802 127.346C183.036 127.346 183.232 127.43 183.39 127.598C183.558 127.766 183.642 127.971 183.642 128.214C183.642 128.457 183.558 128.662 183.39 128.83C183.232 128.998 183.036 129.082 182.802 129.082ZM183.418 130.328V138H182.144V130.328H183.418ZM188.852 137.048C189.412 137.048 189.878 136.917 190.252 136.656C190.625 136.395 190.882 136.021 191.022 135.536H192.394C192.207 136.264 191.838 136.861 191.288 137.328C190.746 137.785 190.065 138.047 189.244 138.112V138.812C189.794 138.803 190.233 138.919 190.56 139.162C190.886 139.405 191.05 139.75 191.05 140.198C191.05 140.637 190.891 140.987 190.574 141.248C190.256 141.509 189.846 141.64 189.342 141.64H187.732V140.814H189.09C189.398 140.814 189.622 140.767 189.762 140.674C189.911 140.581 189.986 140.422 189.986 140.198C189.986 139.983 189.911 139.829 189.762 139.736C189.622 139.643 189.398 139.596 189.09 139.596H188.39V138.098C187.746 138.033 187.176 137.832 186.682 137.496C186.187 137.151 185.8 136.693 185.52 136.124C185.249 135.545 185.114 134.887 185.114 134.15C185.114 133.357 185.272 132.666 185.59 132.078C185.907 131.481 186.346 131.019 186.906 130.692C187.475 130.365 188.124 130.202 188.852 130.202C189.794 130.202 190.569 130.431 191.176 130.888C191.792 131.345 192.198 131.98 192.394 132.792H191.022C190.891 132.325 190.634 131.957 190.252 131.686C189.878 131.415 189.412 131.28 188.852 131.28C188.124 131.28 187.536 131.532 187.088 132.036C186.64 132.531 186.416 133.235 186.416 134.15C186.416 135.074 186.64 135.788 187.088 136.292C187.536 136.796 188.124 137.048 188.852 137.048ZM197.44 138.126C196.721 138.126 196.068 137.963 195.48 137.636C194.901 137.309 194.444 136.847 194.108 136.25C193.781 135.643 193.618 134.943 193.618 134.15C193.618 133.366 193.786 132.675 194.122 132.078C194.467 131.471 194.934 131.009 195.522 130.692C196.11 130.365 196.768 130.202 197.496 130.202C198.224 130.202 198.882 130.365 199.47 130.692C200.058 131.009 200.52 131.467 200.856 132.064C201.201 132.661 201.374 133.357 201.374 134.15C201.374 134.943 201.196 135.643 200.842 136.25C200.496 136.847 200.025 137.309 199.428 137.636C198.83 137.963 198.168 138.126 197.44 138.126ZM197.44 137.006C197.897 137.006 198.326 136.899 198.728 136.684C199.129 136.469 199.451 136.147 199.694 135.718C199.946 135.289 200.072 134.766 200.072 134.15C200.072 133.534 199.95 133.011 199.708 132.582C199.465 132.153 199.148 131.835 198.756 131.63C198.364 131.415 197.939 131.308 197.482 131.308C197.015 131.308 196.586 131.415 196.194 131.63C195.811 131.835 195.503 132.153 195.27 132.582C195.036 133.011 194.92 133.534 194.92 134.15C194.92 134.775 195.032 135.303 195.256 135.732C195.489 136.161 195.797 136.483 196.18 136.698C196.562 136.903 196.982 137.006 197.44 137.006ZM208.055 131.742C208.307 131.303 208.68 130.939 209.175 130.65C209.679 130.351 210.262 130.202 210.925 130.202C211.606 130.202 212.222 130.365 212.773 130.692C213.333 131.019 213.772 131.481 214.089 132.078C214.406 132.666 214.565 133.352 214.565 134.136C214.565 134.911 214.406 135.601 214.089 136.208C213.772 136.815 213.333 137.286 212.773 137.622C212.222 137.958 211.606 138.126 210.925 138.126C210.272 138.126 209.693 137.981 209.189 137.692C208.694 137.393 208.316 137.025 208.055 136.586V141.64H206.781V130.328H208.055V131.742ZM213.263 134.136C213.263 133.557 213.146 133.053 212.913 132.624C212.68 132.195 212.362 131.868 211.961 131.644C211.569 131.42 211.135 131.308 210.659 131.308C210.192 131.308 209.758 131.425 209.357 131.658C208.965 131.882 208.648 132.213 208.405 132.652C208.172 133.081 208.055 133.581 208.055 134.15C208.055 134.729 208.172 135.237 208.405 135.676C208.648 136.105 208.965 136.437 209.357 136.67C209.758 136.894 210.192 137.006 210.659 137.006C211.135 137.006 211.569 136.894 211.961 136.67C212.362 136.437 212.68 136.105 212.913 135.676C213.146 135.237 213.263 134.724 213.263 134.136ZM215.766 134.136C215.766 133.352 215.925 132.666 216.242 132.078C216.559 131.481 216.993 131.019 217.544 130.692C218.104 130.365 218.725 130.202 219.406 130.202C220.078 130.202 220.661 130.347 221.156 130.636C221.651 130.925 222.019 131.289 222.262 131.728V130.328H223.55V138H222.262V136.572C222.01 137.02 221.632 137.393 221.128 137.692C220.633 137.981 220.055 138.126 219.392 138.126C218.711 138.126 218.095 137.958 217.544 137.622C216.993 137.286 216.559 136.815 216.242 136.208C215.925 135.601 215.766 134.911 215.766 134.136ZM222.262 134.15C222.262 133.571 222.145 133.067 221.912 132.638C221.679 132.209 221.361 131.882 220.96 131.658C220.568 131.425 220.134 131.308 219.658 131.308C219.182 131.308 218.748 131.42 218.356 131.644C217.964 131.868 217.651 132.195 217.418 132.624C217.185 133.053 217.068 133.557 217.068 134.136C217.068 134.724 217.185 135.237 217.418 135.676C217.651 136.105 217.964 136.437 218.356 136.67C218.748 136.894 219.182 137.006 219.658 137.006C220.134 137.006 220.568 136.894 220.96 136.67C221.361 136.437 221.679 136.105 221.912 135.676C222.145 135.237 222.262 134.729 222.262 134.15ZM226.977 131.574C227.201 131.135 227.518 130.795 227.929 130.552C228.349 130.309 228.858 130.188 229.455 130.188V131.504H229.119C227.691 131.504 226.977 132.279 226.977 133.828V138H225.703V130.328H226.977V131.574ZM230.45 134.136C230.45 133.352 230.608 132.666 230.926 132.078C231.243 131.481 231.677 131.019 232.228 130.692C232.788 130.365 233.408 130.202 234.09 130.202C234.762 130.202 235.345 130.347 235.84 130.636C236.334 130.925 236.703 131.289 236.946 131.728V130.328H238.234V138H236.946V136.572C236.694 137.02 236.316 137.393 235.812 137.692C235.317 137.981 234.738 138.126 234.076 138.126C233.394 138.126 232.778 137.958 232.228 137.622C231.677 137.286 231.243 136.815 230.926 136.208C230.608 135.601 230.45 134.911 230.45 134.136ZM236.946 134.15C236.946 133.571 236.829 133.067 236.596 132.638C236.362 132.209 236.045 131.882 235.644 131.658C235.252 131.425 234.818 131.308 234.342 131.308C233.866 131.308 233.432 131.42 233.04 131.644C232.648 131.868 232.335 132.195 232.102 132.624C231.868 133.053 231.752 133.557 231.752 134.136C231.752 134.724 231.868 135.237 232.102 135.676C232.335 136.105 232.648 136.437 233.04 136.67C233.432 136.894 233.866 137.006 234.342 137.006C234.818 137.006 235.252 136.894 235.644 136.67C236.045 136.437 236.362 136.105 236.596 135.676C236.829 135.237 236.946 134.729 236.946 134.15ZM247.927 130.188C248.506 130.188 249.028 130.314 249.495 130.566C249.962 130.809 250.326 131.177 250.587 131.672C250.858 132.167 250.993 132.769 250.993 133.478V138H249.733V133.66C249.733 132.895 249.542 132.311 249.159 131.91C248.776 131.499 248.254 131.294 247.591 131.294C246.919 131.294 246.382 131.504 245.981 131.924C245.589 132.344 245.393 132.955 245.393 133.758V138H244.119V127.64H245.393V131.42C245.645 131.028 245.99 130.725 246.429 130.51C246.877 130.295 247.376 130.188 247.927 130.188ZM260.074 133.87C260.074 134.113 260.06 134.369 260.032 134.64H253.9C253.947 135.396 254.203 135.989 254.67 136.418C255.146 136.838 255.72 137.048 256.392 137.048C256.943 137.048 257.4 136.922 257.764 136.67C258.137 136.409 258.399 136.063 258.548 135.634H259.92C259.715 136.371 259.304 136.973 258.688 137.44C258.072 137.897 257.307 138.126 256.392 138.126C255.664 138.126 255.011 137.963 254.432 137.636C253.863 137.309 253.415 136.847 253.088 136.25C252.761 135.643 252.598 134.943 252.598 134.15C252.598 133.357 252.757 132.661 253.074 132.064C253.391 131.467 253.835 131.009 254.404 130.692C254.983 130.365 255.645 130.202 256.392 130.202C257.12 130.202 257.764 130.361 258.324 130.678C258.884 130.995 259.313 131.434 259.612 131.994C259.92 132.545 260.074 133.17 260.074 133.87ZM258.758 133.604C258.758 133.119 258.651 132.703 258.436 132.358C258.221 132.003 257.927 131.737 257.554 131.56C257.19 131.373 256.784 131.28 256.336 131.28C255.692 131.28 255.141 131.485 254.684 131.896C254.236 132.307 253.979 132.876 253.914 133.604H258.758ZM263.03 127.64V138H261.756V127.64H263.03ZM266.475 131.742C266.727 131.303 267.1 130.939 267.595 130.65C268.099 130.351 268.682 130.202 269.345 130.202C270.026 130.202 270.642 130.365 271.193 130.692C271.753 131.019 272.192 131.481 272.509 132.078C272.826 132.666 272.985 133.352 272.985 134.136C272.985 134.911 272.826 135.601 272.509 136.208C272.192 136.815 271.753 137.286 271.193 137.622C270.642 137.958 270.026 138.126 269.345 138.126C268.692 138.126 268.113 137.981 267.609 137.692C267.114 137.393 266.736 137.025 266.475 136.586V141.64H265.201V130.328H266.475V131.742ZM271.683 134.136C271.683 133.557 271.566 133.053 271.333 132.624C271.1 132.195 270.782 131.868 270.381 131.644C269.989 131.42 269.555 131.308 269.079 131.308C268.612 131.308 268.178 131.425 267.777 131.658C267.385 131.882 267.068 132.213 266.825 132.652C266.592 133.081 266.475 133.581 266.475 134.15C266.475 134.729 266.592 135.237 266.825 135.676C267.068 136.105 267.385 136.437 267.777 136.67C268.178 136.894 268.612 137.006 269.079 137.006C269.555 137.006 269.989 136.894 270.381 136.67C270.782 136.437 271.1 136.105 271.333 135.676C271.566 135.237 271.683 134.724 271.683 134.136ZM274.186 134.136C274.186 133.352 274.345 132.666 274.662 132.078C274.979 131.481 275.413 131.019 275.964 130.692C276.524 130.365 277.149 130.202 277.84 130.202C278.437 130.202 278.993 130.342 279.506 130.622C280.019 130.893 280.411 131.252 280.682 131.7V127.64H281.97V138H280.682V136.558C280.43 137.015 280.057 137.393 279.562 137.692C279.067 137.981 278.489 138.126 277.826 138.126C277.145 138.126 276.524 137.958 275.964 137.622C275.413 137.286 274.979 136.815 274.662 136.208C274.345 135.601 274.186 134.911 274.186 134.136ZM280.682 134.15C280.682 133.571 280.565 133.067 280.332 132.638C280.099 132.209 279.781 131.882 279.38 131.658C278.988 131.425 278.554 131.308 278.078 131.308C277.602 131.308 277.168 131.42 276.776 131.644C276.384 131.868 276.071 132.195 275.838 132.624C275.605 133.053 275.488 133.557 275.488 134.136C275.488 134.724 275.605 135.237 275.838 135.676C276.071 136.105 276.384 136.437 276.776 136.67C277.168 136.894 277.602 137.006 278.078 137.006C278.554 137.006 278.988 136.894 279.38 136.67C279.781 136.437 280.099 136.105 280.332 135.676C280.565 135.237 280.682 134.729 280.682 134.15ZM291.123 133.87C291.123 134.113 291.109 134.369 291.081 134.64H284.949C284.996 135.396 285.252 135.989 285.719 136.418C286.195 136.838 286.769 137.048 287.441 137.048C287.992 137.048 288.449 136.922 288.813 136.67C289.186 136.409 289.448 136.063 289.597 135.634H290.969C290.764 136.371 290.353 136.973 289.737 137.44C289.121 137.897 288.356 138.126 287.441 138.126C286.713 138.126 286.06 137.963 285.481 137.636C284.912 137.309 284.464 136.847 284.137 136.25C283.81 135.643 283.647 134.943 283.647 134.15C283.647 133.357 283.806 132.661 284.123 132.064C284.44 131.467 284.884 131.009 285.453 130.692C286.032 130.365 286.694 130.202 287.441 130.202C288.169 130.202 288.813 130.361 289.373 130.678C289.933 130.995 290.362 131.434 290.661 131.994C290.969 132.545 291.123 133.17 291.123 133.87ZM289.807 133.604C289.807 133.119 289.7 132.703 289.485 132.358C289.27 132.003 288.976 131.737 288.603 131.56C288.239 131.373 287.833 131.28 287.385 131.28C286.741 131.28 286.19 131.485 285.733 131.896C285.285 132.307 285.028 132.876 284.963 133.604H289.807ZM295.521 138.126C294.933 138.126 294.405 138.028 293.939 137.832C293.472 137.627 293.103 137.347 292.833 136.992C292.562 136.628 292.413 136.213 292.385 135.746H293.701C293.738 136.129 293.915 136.441 294.233 136.684C294.559 136.927 294.984 137.048 295.507 137.048C295.992 137.048 296.375 136.941 296.655 136.726C296.935 136.511 297.075 136.241 297.075 135.914C297.075 135.578 296.925 135.331 296.627 135.172C296.328 135.004 295.866 134.841 295.241 134.682C294.671 134.533 294.205 134.383 293.841 134.234C293.486 134.075 293.178 133.847 292.917 133.548C292.665 133.24 292.539 132.839 292.539 132.344C292.539 131.952 292.655 131.593 292.889 131.266C293.122 130.939 293.453 130.683 293.883 130.496C294.312 130.3 294.802 130.202 295.353 130.202C296.202 130.202 296.888 130.417 297.411 130.846C297.933 131.275 298.213 131.863 298.251 132.61H296.977C296.949 132.209 296.785 131.887 296.487 131.644C296.197 131.401 295.805 131.28 295.311 131.28C294.853 131.28 294.489 131.378 294.219 131.574C293.948 131.77 293.813 132.027 293.813 132.344C293.813 132.596 293.892 132.806 294.051 132.974C294.219 133.133 294.424 133.263 294.667 133.366C294.919 133.459 295.264 133.567 295.703 133.688C296.253 133.837 296.701 133.987 297.047 134.136C297.392 134.276 297.686 134.491 297.929 134.78C298.181 135.069 298.311 135.447 298.321 135.914C298.321 136.334 298.204 136.712 297.971 137.048C297.737 137.384 297.406 137.65 296.977 137.846C296.557 138.033 296.071 138.126 295.521 138.126ZM304.403 138L301.393 134.612V138H300.119V127.64H301.393V133.73L304.347 130.328H306.125L302.513 134.15L306.139 138H304.403ZM310.581 134.136C310.581 133.352 310.739 132.666 311.057 132.078C311.374 131.481 311.808 131.019 312.359 130.692C312.919 130.365 313.544 130.202 314.235 130.202C314.832 130.202 315.387 130.342 315.901 130.622C316.414 130.893 316.806 131.252 317.077 131.7V127.64H318.365V138H317.077V136.558C316.825 137.015 316.451 137.393 315.957 137.692C315.462 137.981 314.883 138.126 314.221 138.126C313.539 138.126 312.919 137.958 312.359 137.622C311.808 137.286 311.374 136.815 311.057 136.208C310.739 135.601 310.581 134.911 310.581 134.136ZM317.077 134.15C317.077 133.571 316.96 133.067 316.727 132.638C316.493 132.209 316.176 131.882 315.775 131.658C315.383 131.425 314.949 131.308 314.473 131.308C313.997 131.308 313.563 131.42 313.171 131.644C312.779 131.868 312.466 132.195 312.233 132.624C311.999 133.053 311.883 133.557 311.883 134.136C311.883 134.724 311.999 135.237 312.233 135.676C312.466 136.105 312.779 136.437 313.171 136.67C313.563 136.894 313.997 137.006 314.473 137.006C314.949 137.006 315.383 136.894 315.775 136.67C316.176 136.437 316.493 136.105 316.727 135.676C316.96 135.237 317.077 134.729 317.077 134.15ZM327.517 133.87C327.517 134.113 327.503 134.369 327.475 134.64H321.343C321.39 135.396 321.647 135.989 322.113 136.418C322.589 136.838 323.163 137.048 323.835 137.048C324.386 137.048 324.843 136.922 325.207 136.67C325.581 136.409 325.842 136.063 325.991 135.634H327.363C327.158 136.371 326.747 136.973 326.131 137.44C325.515 137.897 324.75 138.126 323.835 138.126C323.107 138.126 322.454 137.963 321.875 137.636C321.306 137.309 320.858 136.847 320.531 136.25C320.205 135.643 320.041 134.943 320.041 134.15C320.041 133.357 320.2 132.661 320.517 132.064C320.835 131.467 321.278 131.009 321.847 130.692C322.426 130.365 323.089 130.202 323.835 130.202C324.563 130.202 325.207 130.361 325.767 130.678C326.327 130.995 326.757 131.434 327.055 131.994C327.363 132.545 327.517 133.17 327.517 133.87ZM326.201 133.604C326.201 133.119 326.094 132.703 325.879 132.358C325.665 132.003 325.371 131.737 324.997 131.56C324.633 131.373 324.227 131.28 323.779 131.28C323.135 131.28 322.585 131.485 322.127 131.896C321.679 132.307 321.423 132.876 321.357 133.604H326.201ZM338.938 128.242V129.278H336.278V138H335.004V129.278H332.33V128.242H338.938ZM340.912 138.084C340.669 138.084 340.464 138 340.296 137.832C340.128 137.664 340.044 137.459 340.044 137.216C340.044 136.973 340.128 136.768 340.296 136.6C340.464 136.432 340.669 136.348 340.912 136.348C341.145 136.348 341.341 136.432 341.5 136.6C341.668 136.768 341.752 136.973 341.752 137.216C341.752 137.459 341.668 137.664 341.5 137.832C341.341 138 341.145 138.084 340.912 138.084ZM344.719 128.242V138H343.445V128.242H344.719ZM347.297 138.084C347.054 138.084 346.849 138 346.681 137.832C346.513 137.664 346.429 137.459 346.429 137.216C346.429 136.973 346.513 136.768 346.681 136.6C346.849 136.432 347.054 136.348 347.297 136.348C347.53 136.348 347.726 136.432 347.885 136.6C348.053 136.768 348.137 136.973 348.137 137.216C348.137 137.459 348.053 137.664 347.885 137.832C347.726 138 347.53 138.084 347.297 138.084Z" fill="#1C1C1C"/>
</svg>
